<?xml version="1.0" encoding="UTF-8" standalone="no"?>
<svg
   xmlns:dc="http://purl.org/dc/elements/1.1/"
   xmlns:cc="http://creativecommons.org/ns#"
   xmlns:rdf="http://www.w3.org/1999/02/22-rdf-syntax-ns#"
   xmlns:svg="http://www.w3.org/2000/svg"
   xmlns="http://www.w3.org/2000/svg"
   xmlns:sodipodi="http://sodipodi.sourceforge.net/DTD/sodipodi-0.dtd"
   xmlns:inkscape="http://www.inkscape.org/namespaces/inkscape"
   width="1112"
   height="550"
   viewBox="0 0 294.21652 145.52113"
   version="1.1"
   id="svg8"
   inkscape:version="1.0.1 (3bc2e813f5, 2020-09-07, custom)"
   sodipodi:docname="password_guessing.svg">
  <defs
     id="defs2">
    <marker
       style="overflow:visible"
       id="marker8809"
       refX="0"
       refY="0"
       orient="auto"
       inkscape:stockid="Arrow2Lend"
       inkscape:isstock="true">
      <path
         transform="matrix(-1.1,0,0,-1.1,-1.1,0)"
         d="M 8.7185878,4.0337352 -2.2072895,0.01601326 8.7185884,-4.0017078 c -1.7454984,2.3720609 -1.7354408,5.6174519 -6e-7,8.035443 z"
         style="fill:#00dd20;fill-opacity:1;fill-rule:evenodd;stroke:#00dd20;stroke-width:0.625;stroke-linejoin:round;stroke-opacity:1"
         id="path8807" />
    </marker>
    <marker
       style="overflow:visible"
       id="marker8104"
       refX="0"
       refY="0"
       orient="auto"
       inkscape:stockid="Arrow2Lend"
       inkscape:isstock="true">
      <path
         transform="matrix(-1.1,0,0,-1.1,-1.1,0)"
         d="M 8.7185878,4.0337352 -2.2072895,0.01601326 8.7185884,-4.0017078 c -1.7454984,2.3720609 -1.7354408,5.6174519 -6e-7,8.035443 z"
         style="fill:#c94b13;fill-opacity:0.953018;fill-rule:evenodd;stroke:#c94b13;stroke-width:0.625;stroke-linejoin:round;stroke-opacity:0.953018"
         id="path8102" />
    </marker>
    <marker
       style="overflow:visible"
       id="Arrow1Lend"
       refX="0"
       refY="0"
       orient="auto"
       inkscape:stockid="Arrow1Lend"
       inkscape:isstock="true">
      <path
         transform="matrix(-0.8,0,0,-0.8,-10,0)"
         style="fill:#000000;fill-opacity:1;fill-rule:evenodd;stroke:#000000;stroke-width:1pt;stroke-opacity:1"
         d="M 0,0 5,-5 -12.5,0 5,5 Z"
         id="path1421" />
    </marker>
    <marker
       style="overflow:visible"
       id="marker3652"
       refX="0"
       refY="0"
       orient="auto"
       inkscape:stockid="Arrow2Lend"
       inkscape:isstock="true"
       inkscape:collect="always">
      <path
         transform="matrix(-1.1,0,0,-1.1,-1.1,0)"
         d="M 8.7185878,4.0337352 -2.2072895,0.01601326 8.7185884,-4.0017078 c -1.7454984,2.3720609 -1.7354408,5.6174519 -6e-7,8.035443 z"
         style="fill:#1cc913;fill-opacity:0.953018;fill-rule:evenodd;stroke:#1cc913;stroke-width:0.625;stroke-linejoin:round;stroke-opacity:0.953018"
         id="path3650" />
    </marker>
    <marker
       style="overflow:visible"
       id="Arrow2Lstart"
       refX="0"
       refY="0"
       orient="auto"
       inkscape:stockid="Arrow2Lstart"
       inkscape:isstock="true">
      <path
         transform="matrix(1.1,0,0,1.1,1.1,0)"
         d="M 8.7185878,4.0337352 -2.2072895,0.01601326 8.7185884,-4.0017078 c -1.7454984,2.3720609 -1.7354408,5.6174519 -6e-7,8.035443 z"
         style="fill:#15e200;fill-opacity:0.462733;fill-rule:evenodd;stroke:#15e200;stroke-width:0.625;stroke-linejoin:round;stroke-opacity:0.462733"
         id="path1436" />
    </marker>
    <marker
       style="overflow:visible"
       id="marker3426"
       refX="0"
       refY="0"
       orient="auto"
       inkscape:stockid="Arrow2Lend"
       inkscape:isstock="true">
      <path
         transform="matrix(-1.1,0,0,-1.1,-1.1,0)"
         d="M 8.7185878,4.0337352 -2.2072895,0.01601326 8.7185884,-4.0017078 c -1.7454984,2.3720609 -1.7354408,5.6174519 -6e-7,8.035443 z"
         style="fill:#000000;fill-opacity:1;fill-rule:evenodd;stroke:#000000;stroke-width:0.625;stroke-linejoin:round;stroke-opacity:1"
         id="path3424" />
    </marker>
    <marker
       style="overflow:visible"
       id="marker3283"
       refX="0"
       refY="0"
       orient="auto"
       inkscape:stockid="Arrow2Lend"
       inkscape:isstock="true"
       inkscape:collect="always">
      <path
         transform="matrix(-1.1,0,0,-1.1,-1.1,0)"
         d="M 8.7185878,4.0337352 -2.2072895,0.01601326 8.7185884,-4.0017078 c -1.7454984,2.3720609 -1.7354408,5.6174519 -6e-7,8.035443 z"
         style="fill:#000000;fill-opacity:1;fill-rule:evenodd;stroke:#000000;stroke-width:0.625;stroke-linejoin:round;stroke-opacity:1"
         id="path3281" />
    </marker>
    <marker
       style="overflow:visible"
       id="marker3129"
       refX="0"
       refY="0"
       orient="auto"
       inkscape:stockid="Arrow2Lend"
       inkscape:isstock="true"
       inkscape:collect="always">
      <path
         transform="matrix(-1.1,0,0,-1.1,-1.1,0)"
         d="M 8.7185878,4.0337352 -2.2072895,0.01601326 8.7185884,-4.0017078 c -1.7454984,2.3720609 -1.7354408,5.6174519 -6e-7,8.035443 z"
         style="fill:#000000;fill-opacity:1;fill-rule:evenodd;stroke:#000000;stroke-width:0.625;stroke-linejoin:round;stroke-opacity:1"
         id="path3127" />
    </marker>
    <marker
       style="overflow:visible"
       id="marker2805"
       refX="0"
       refY="0"
       orient="auto"
       inkscape:stockid="Arrow2Lend"
       inkscape:isstock="true">
      <path
         transform="matrix(-1.1,0,0,-1.1,-1.1,0)"
         d="M 8.7185878,4.0337352 -2.2072895,0.01601326 8.7185884,-4.0017078 c -1.7454984,2.3720609 -1.7354408,5.6174519 -6e-7,8.035443 z"
         style="fill:#15e200;fill-opacity:0.462733;fill-rule:evenodd;stroke:#15e200;stroke-width:0.625;stroke-linejoin:round;stroke-opacity:0.462733"
         id="path2803" />
    </marker>
    <marker
       style="overflow:visible"
       id="marker2661"
       refX="0"
       refY="0"
       orient="auto"
       inkscape:stockid="Arrow2Lend"
       inkscape:isstock="true"
       inkscape:collect="always">
      <path
         transform="matrix(-1.1,0,0,-1.1,-1.1,0)"
         d="M 8.7185878,4.0337352 -2.2072895,0.01601326 8.7185884,-4.0017078 c -1.7454984,2.3720609 -1.7354408,5.6174519 -6e-7,8.035443 z"
         style="fill:#d29300;fill-opacity:1;fill-rule:evenodd;stroke:#d29300;stroke-width:0.625;stroke-linejoin:round;stroke-opacity:1"
         id="path2659" />
    </marker>
    <marker
       style="overflow:visible"
       id="marker2621"
       refX="0"
       refY="0"
       orient="auto"
       inkscape:stockid="Arrow2Lend"
       inkscape:isstock="true"
       inkscape:collect="always">
      <path
         transform="matrix(-1.1,0,0,-1.1,-1.1,0)"
         d="M 8.7185878,4.0337352 -2.2072895,0.01601326 8.7185884,-4.0017078 c -1.7454984,2.3720609 -1.7354408,5.6174519 -6e-7,8.035443 z"
         style="fill:#d29300;fill-opacity:1;fill-rule:evenodd;stroke:#d29300;stroke-width:0.625;stroke-linejoin:round;stroke-opacity:1"
         id="path2619" />
    </marker>
    <marker
       style="overflow:visible"
       id="Arrow2Lend"
       refX="0"
       refY="0"
       orient="auto"
       inkscape:stockid="Arrow2Lend"
       inkscape:isstock="true"
       inkscape:collect="always">
      <path
         transform="matrix(-1.1,0,0,-1.1,-1.1,0)"
         d="M 8.7185878,4.0337352 -2.2072895,0.01601326 8.7185884,-4.0017078 c -1.7454984,2.3720609 -1.7354408,5.6174519 -6e-7,8.035443 z"
         style="fill:#d29300;fill-opacity:1;fill-rule:evenodd;stroke:#d29300;stroke-width:0.625;stroke-linejoin:round;stroke-opacity:1"
         id="path1439" />
    </marker>
    <rect
       x="76.454361"
       y="58.125511"
       width="69.329407"
       height="21.073029"
       id="rect1313" />
    <rect
       x="76.454361"
       y="58.125511"
       width="69.329407"
       height="21.073029"
       id="rect1365" />
    <rect
       x="76.454361"
       y="58.125511"
       width="69.329407"
       height="21.073029"
       id="rect1388" />
    <rect
       x="76.454361"
       y="58.125511"
       width="69.329407"
       height="21.073029"
       id="rect1414" />
    <rect
       x="76.454361"
       y="58.125511"
       width="69.329407"
       height="21.073029"
       id="rect1313-6" />
    <rect
       x="76.454361"
       y="58.125511"
       width="69.329407"
       height="21.073029"
       id="rect7367" />
    <rect
       x="76.454361"
       y="58.125511"
       width="69.329407"
       height="21.073029"
       id="rect6639" />
    <rect
       x="76.454361"
       y="58.125511"
       width="69.329407"
       height="21.073029"
       id="rect7370" />
    <rect
       x="76.454361"
       y="58.125511"
       width="69.329407"
       height="21.073029"
       id="rect8256" />
    <rect
       x="76.454361"
       y="58.125511"
       width="69.329407"
       height="21.073029"
       id="rect6639-0" />
    <rect
       x="76.454361"
       y="58.125511"
       width="69.329407"
       height="21.073029"
       id="rect8275" />
    <rect
       x="76.454361"
       y="58.125511"
       width="69.329407"
       height="21.073029"
       id="rect6639-5" />
    <rect
       x="76.454361"
       y="58.125511"
       width="69.329407"
       height="21.073029"
       id="rect8440" />
    <rect
       x="76.454361"
       y="58.125511"
       width="69.329407"
       height="21.073029"
       id="rect8957" />
  </defs>
  <sodipodi:namedview
     id="base"
     pagecolor="#ffffff"
     bordercolor="#666666"
     borderopacity="1.0"
     inkscape:pageopacity="0.0"
     inkscape:pageshadow="2"
     inkscape:zoom="0.56107874"
     inkscape:cx="551.04408"
     inkscape:cy="71.386155"
     inkscape:document-units="mm"
     inkscape:current-layer="layer1"
     inkscape:document-rotation="0"
     showgrid="false"
     units="px"
     inkscape:snap-bbox="false"
     inkscape:window-width="1920"
     inkscape:window-height="1056"
     inkscape:window-x="0"
     inkscape:window-y="24"
     inkscape:window-maximized="1"
     inkscape:snap-center="false"
     inkscape:snap-object-midpoints="false"
     showguides="true"
     inkscape:guide-bbox="true">
    <sodipodi:guide
       position="98.440038,187.16961"
       orientation="0,-1"
       id="guide1180" />
  </sodipodi:namedview>
  <metadata
     id="metadata5">
    <rdf:RDF>
      <cc:Work
         rdf:about="">
        <dc:format>image/svg+xml</dc:format>
        <dc:type
           rdf:resource="http://purl.org/dc/dcmitype/StillImage" />
        <dc:title></dc:title>
      </cc:Work>
    </rdf:RDF>
  </metadata>
  <g
     inkscape:label="Layer 1"
     inkscape:groupmode="layer"
     id="layer1">
    <path
       id="rect1297"
       style="opacity:1;fill:#333333;stroke:#333333;stroke-width:1;stroke-linecap:round;stroke-linejoin:round;stroke-miterlimit:4;stroke-dasharray:none;stroke-opacity:1;paint-order:stroke fill markers"
       d="M 9.4258669,7.0349439 V 43.032151 H 31.692813 v 0.0067 l -2.999136,5.57952 h 16.916676 l -2.639756,-5.579518 h -0.01123 v -0.0067 H 65.238101 V 7.0349439 Z M 37.332266,9.7786359 A 13.981448,13.115707 0 0 1 51.313261,22.894882 13.981448,13.115707 0 0 1 43.988653,34.428056 v 3.409391 a 11.093138,8.7463273 0 0 1 -0.831067,0.446611 l 0.404302,1.389261 -1.699193,0.404476 -0.331862,-1.14096 a 11.093138,8.7463273 0 0 1 -1.094988,0.301109 l 0.175199,1.042087 -1.566671,0.264033 -0.175196,-1.040962 a 11.093138,8.7463273 0 0 1 -1.059049,0.0764 l 0.02526,0.994339 -1.58857,0.03989 -0.02695,-1.070177 a 11.093138,8.7463273 0 0 1 -1.225821,-0.152802 l -0.147122,1.129724 -1.575656,-0.20561 0.167335,-1.283648 a 11.093138,8.7463273 0 0 1 -0.915848,-0.308414 l -0.394198,1.354995 -1.69919,-0.404477 0.492462,-1.693743 a 11.093138,8.7463273 0 0 1 -0.914173,-0.569635 v -3.31951 h 0.041 A 13.981448,13.115707 0 0 1 23.350709,22.894882 13.981448,13.115707 0 0 1 37.332266,9.7786359 Z m 6.608656,7.5316751 a 4.8798472,3.4048978 0 0 1 -4.793228,2.765601 4.8798472,3.4048978 0 0 1 -0.168458,-0.0023 4.5961327,4.298683 0 0 0 -0.285258,1.492067 4.5961327,4.298683 0 0 0 4.59613,4.298675 4.5961327,4.298683 0 0 0 4.59613,-4.298675 4.5961327,4.298683 0 0 0 -3.945316,-4.255421 z m -13.217874,0.08539 a 4.5961327,4.298683 0 0 0 -3.945317,4.25542 4.5961327,4.298683 0 0 0 4.59613,4.298116 4.5961327,4.298683 0 0 0 4.596131,-4.298116 4.5961327,4.298683 0 0 0 -0.285819,-1.492065 4.8798472,3.4048978 0 0 1 -0.167897,0.0023 4.8798472,3.4048978 0 0 1 -4.793228,-2.765604 z m 5.709083,9.064186 a 1.0781061,1.787571 0 0 0 -1.073646,1.78756 1.0781061,1.787571 0 0 0 1.07814,1.787556 1.0781061,1.787571 0 0 0 0.595782,-0.29774 0.4539401,2.5536721 0 0 1 -0.08535,-1.489816 0.4539401,2.5536721 0 0 1 0.08535,-1.489259 1.0781061,1.787571 0 0 0 -0.595782,-0.298301 1.0781061,1.787571 0 0 0 -0.0045,0 z m 1.788477,0 a 1.0781061,1.787571 0 0 0 -0.589046,0.298301 0.4539401,2.5536721 0 0 1 0.08535,1.489259 0.4539401,2.5536721 0 0 1 -0.08535,1.489816 1.0781061,1.787571 0 0 0 0.595783,0.29774 1.0781061,1.787571 0 0 0 1.078139,-1.787556 1.0781061,1.787571 0 0 0 -1.073645,-1.78756 1.0781061,1.787571 0 0 0 -0.0045,0 1.0781061,1.787571 0 0 0 -0.0067,0 z" />
    <rect
       style="fill:#f9f9f9;stroke:#1a1a1a;stroke-width:3.5;stroke-linecap:round;stroke-linejoin:round;stroke-miterlimit:4;stroke-dasharray:none;stroke-opacity:1;paint-order:stroke fill markers"
       id="rect1309"
       width="86.962799"
       height="20.748558"
       x="83.172577"
       y="51.74556" />
    <text
       xml:space="preserve"
       id="text1311"
       style="font-style:normal;font-weight:normal;font-size:10.5833px;line-height:1.25;font-family:sans-serif;letter-spacing:0px;word-spacing:0px;white-space:pre;shape-inside:url(#rect1313);fill:#000000;fill-opacity:1;stroke:none;stroke-width:3.22028;stroke-miterlimit:4;stroke-dasharray:none;"
       transform="matrix(1.0866285,0,0,1.0870946,13.025722,-6.9966768)"><tspan
         x="76.455078"
         y="67.48874"><tspan
           style="font-style:normal;font-variant:normal;font-weight:normal;font-stretch:normal;font-size:10.5833px;font-family:sans-serif;-inkscape-font-specification:'sans-serif, Normal';font-variant-ligatures:normal;font-variant-caps:normal;font-variant-numeric:normal;font-variant-east-asian:normal">Password1</tspan></tspan></text>
    <rect
       style="fill:#f9f9f9;stroke:#1a1a1a;stroke-width:3.5;stroke-linecap:round;stroke-linejoin:round;stroke-miterlimit:4;stroke-dasharray:none;stroke-opacity:1;paint-order:stroke fill markers"
       id="rect1357"
       width="86.962799"
       height="20.748558"
       x="83.172577"
       y="83.846497" />
    <text
       xml:space="preserve"
       id="text1361"
       style="font-style:normal;font-weight:normal;font-size:10.5833px;line-height:1.25;font-family:sans-serif;letter-spacing:0px;word-spacing:0px;white-space:pre;shape-inside:url(#rect1365);fill:#000000;fill-opacity:1;stroke:none;stroke-width:3.22028;stroke-miterlimit:4;stroke-dasharray:none;"
       transform="matrix(1.0866285,0,0,1.0870946,13.070644,24.891776)"><tspan
         x="76.455078"
         y="67.48874"><tspan
           style="font-style:normal;font-variant:normal;font-weight:normal;font-stretch:normal;font-size:10.5833px;font-family:sans-serif;-inkscape-font-specification:'sans-serif, Normal';font-variant-ligatures:normal;font-variant-caps:normal;font-variant-numeric:normal;font-variant-east-asian:normal">Password2</tspan></tspan></text>
    <rect
       style="fill:#f9f9f9;stroke:#1a1a1a;stroke-width:3.5;stroke-linecap:round;stroke-linejoin:round;stroke-miterlimit:4;stroke-dasharray:none;stroke-opacity:1;paint-order:stroke fill markers"
       id="rect1382"
       width="86.962799"
       height="20.748558"
       x="83.172577"
       y="115.67281" />
    <text
       xml:space="preserve"
       id="text1386"
       style="font-style:normal;font-weight:normal;font-size:10.5833px;line-height:1.25;font-family:sans-serif;letter-spacing:0px;word-spacing:0px;white-space:pre;shape-inside:url(#rect1388);fill:#000000;fill-opacity:1;stroke:none;stroke-width:3.22028;stroke-miterlimit:4;stroke-dasharray:none;"
       transform="matrix(1.0866285,0,0,1.0870946,12.95553,56.718092)"><tspan
         x="76.455078"
         y="67.48874"><tspan
           style="font-style:normal;font-variant:normal;font-weight:normal;font-stretch:normal;font-size:10.5833px;font-family:sans-serif;-inkscape-font-specification:'sans-serif, Normal';font-variant-ligatures:normal;font-variant-caps:normal;font-variant-numeric:normal;font-variant-east-asian:normal">Password3</tspan></tspan></text>
    <path
       style="fill:none;fill-opacity:1;fill-rule:evenodd;stroke:#d29300;stroke-width:1;stroke-linecap:round;stroke-linejoin:round;stroke-miterlimit:4;stroke-dasharray:none;stroke-opacity:1;marker-end:url(#Arrow2Lend)"
       d="m 176.70846,93.520799 h 30.80026"
       id="path1416"
       sodipodi:nodetypes="cc" />
    <path
       style="fill:none;fill-opacity:1;fill-rule:evenodd;stroke:#d29300;stroke-width:1;stroke-linecap:round;stroke-linejoin:round;stroke-miterlimit:4;stroke-dasharray:none;stroke-opacity:1;marker-end:url(#marker2621)"
       d="m 176.88316,61.664388 c 17.49348,5.951781 23.75879,14.948301 30.98968,23.682991"
       id="path2617"
       sodipodi:nodetypes="cc" />
    <path
       style="fill:none;fill-opacity:1;fill-rule:evenodd;stroke:#d29300;stroke-width:1;stroke-linecap:round;stroke-linejoin:round;stroke-miterlimit:4;stroke-dasharray:none;stroke-opacity:1;marker-end:url(#marker2661)"
       d="m 176.88316,126.50803 c 16.19443,-4.71377 25.38937,-13.22363 30.98968,-23.683"
       id="path2657"
       sodipodi:nodetypes="cc" />
    <path
       style="fill:none;stroke:#000000;stroke-width:1;stroke-linecap:butt;stroke-linejoin:miter;stroke-miterlimit:4;stroke-dasharray:none;stroke-opacity:1;marker-end:url(#marker3129)"
       d="m 36.245908,53.093788 v 8.639282 h 42.48854"
       id="path3125"
       sodipodi:nodetypes="ccc" />
    <path
       style="fill:none;stroke:#000000;stroke-width:1;stroke-linecap:butt;stroke-linejoin:miter;stroke-miterlimit:4;stroke-dasharray:none;stroke-opacity:1;marker-end:url(#marker3283)"
       d="m 36.245908,61.73307 v 32.397319 h 42.48854"
       id="path3209"
       sodipodi:nodetypes="ccc" />
    <path
       style="fill:none;stroke:#000000;stroke-width:1;stroke-linecap:butt;stroke-linejoin:miter;stroke-miterlimit:4;stroke-dasharray:none;stroke-opacity:1;marker-end:url(#marker3426)"
       d="m 36.245908,94.130389 v 32.397331 h 42.48854"
       id="path3422"
       sodipodi:nodetypes="ccc" />
    <path
       style="fill:none;stroke:#1cc913;stroke-width:1;stroke-linecap:butt;stroke-linejoin:miter;stroke-miterlimit:4;stroke-dasharray:none;stroke-opacity:0.953018;marker-end:url(#marker3652)"
       d="m 231.54021,106.99964 c -4.60645,21.6252 -20.80743,23.53862 -54.1348,24.96734"
       id="path3788"
       sodipodi:nodetypes="cc" />
    <text
       xml:space="preserve"
       style="font-style:italic;font-variant:normal;font-weight:normal;font-stretch:normal;font-size:10.5833px;line-height:1.25;font-family:sans-serif;-inkscape-font-specification:'sans-serif, Italic';font-variant-ligatures:normal;font-variant-caps:normal;font-variant-numeric:normal;font-variant-east-asian:normal;letter-spacing:0px;word-spacing:0px;fill:#d29300;fill-opacity:1;stroke:none;stroke-width:0.264583"
       x="185.84943"
       y="64.528122"
       id="text6213"><tspan
         sodipodi:role="line"
         id="tspan6211"
         x="185.84943"
         y="64.528122"
         style="font-style:italic;font-variant:normal;font-weight:normal;font-stretch:normal;font-size:10.5833px;font-family:sans-serif;-inkscape-font-specification:'sans-serif, Italic';font-variant-ligatures:normal;font-variant-caps:normal;font-variant-numeric:normal;font-variant-east-asian:normal;fill:#d29300;fill-opacity:1;stroke-width:0.264583">Guess</tspan></text>
    <text
       xml:space="preserve"
       style="font-style:italic;font-variant:normal;font-weight:normal;font-stretch:normal;font-size:10.5833px;line-height:1.25;font-family:sans-serif;-inkscape-font-specification:'sans-serif, Italic';font-variant-ligatures:normal;font-variant-caps:normal;font-variant-numeric:normal;font-variant-east-asian:normal;letter-spacing:0px;word-spacing:0px;fill:#1bc913;fill-opacity:0.952941;stroke:none;stroke-width:0.264583"
       x="223.94934"
       y="131.96187"
       id="text6217"><tspan
         sodipodi:role="line"
         id="tspan6215"
         x="223.94934"
         y="131.96187"
         style="font-style:italic;font-variant:normal;font-weight:normal;font-stretch:normal;font-size:10.5833px;font-family:sans-serif;-inkscape-font-specification:'sans-serif, Italic';font-variant-ligatures:normal;font-variant-caps:normal;font-variant-numeric:normal;font-variant-east-asian:normal;fill:#1bc913;fill-opacity:0.952941;stroke-width:0.264583">Correct!</tspan></text>
    <text
       xml:space="preserve"
       style="font-style:normal;font-weight:normal;font-size:10.5833px;line-height:1.25;font-family:sans-serif;letter-spacing:0px;word-spacing:0px;fill:#000000;fill-opacity:1;stroke:none;stroke-width:0.264583"
       x="19.431477"
       y="138.34746"
       id="text6221"><tspan
         sodipodi:role="line"
         id="tspan6219"
         x="19.431477"
         y="138.34746"
         style="font-style:italic;font-variant:normal;font-weight:normal;font-stretch:normal;font-size:10.5833px;font-family:sans-serif;-inkscape-font-specification:'sans-serif, Italic';font-variant-ligatures:normal;font-variant-caps:normal;font-variant-numeric:normal;font-variant-east-asian:normal;stroke-width:0.264583">Guess</tspan></text>
    <rect
       style="fill:#f9f9f9;stroke:#1a1a1a;stroke-width:3.49999;stroke-linecap:round;stroke-linejoin:round;stroke-miterlimit:4;stroke-dasharray:none;stroke-opacity:1;paint-order:stroke fill markers"
       id="rect6633-4"
       width="65.504387"
       height="20.748461"
       x="214.49788"
       y="83.134888" />
    <text
       xml:space="preserve"
       id="text6637-0"
       style="font-style:normal;font-weight:normal;font-size:10.5833px;line-height:1.25;font-family:sans-serif;letter-spacing:0px;word-spacing:0px;white-space:pre;shape-inside:url(#rect6639-5);fill:#000000;fill-opacity:1;stroke:none;stroke-width:3.22028;stroke-miterlimit:4;stroke-dasharray:none;"
       transform="matrix(1.0866233,0,0,1.0870894,142.84824,24.330807)"><tspan
         x="76.455078"
         y="67.48874"><tspan>Service</tspan></tspan></text>
  </g>
</svg>
